<?xml version="1.0" encoding="UTF-8"?>
<svg id="Layer_1" data-name="Layer 1" xmlns="http://www.w3.org/2000/svg" viewBox="0 0 789.48 137.07">
  <defs>
    <style>
      .cls-1 {
        fill: #fff;
      }

      .cls-2 {
        fill: #d1f254;
      }
    </style>
  </defs>
  <path class="cls-1" d="M211.68,94.44v-51.81c0-17.42,9.08-26.8,27.54-26.8h78.76c18.46,0,27.54,9.38,27.54,26.8v51.81c0,17.42-9.08,26.8-27.54,26.8h-78.76c-18.46,0-27.54-9.38-27.54-26.8ZM314.85,107.24c10.12,0,15.04-3.87,15.04-14.29v-48.83c0-10.42-4.91-14.29-15.04-14.29h-72.65c-9.98,0-14.89,3.87-14.89,14.29v48.83c0,10.42,4.91,14.29,14.89,14.29h72.65Z"/>
  <path class="cls-1" d="M364.13,118.41V18.66c0-1.49.74-2.23,2.23-2.23h94.99c18.61,0,26.95,9.38,26.95,26.8v27.39c0,17.27-8.34,26.65-26.95,26.65h-81.59v21.14c0,1.49-.74,2.23-2.23,2.23h-11.17c-1.49,0-2.23-.74-2.23-2.23h0ZM379.76,30.42v53h78.46c10.12,0,14.59-4.02,14.59-14.44v-24.27c0-10.42-4.47-14.29-14.59-14.29,0,0-78.46,0-78.46,0Z"/>
  <path class="cls-1" d="M506.9,93.84V18.66c0-1.49.75-2.23,2.23-2.23h11.17c1.49,0,2.23.74,2.23,2.23v73.7c0,10.42,4.47,14.29,14.44,14.29h73.7c9.98,0,14.44-3.87,14.44-14.29V18.66c0-1.49.75-2.23,2.23-2.23h11.17c1.49,0,2.23.74,2.23,2.23v75.18c0,17.42-8.49,26.8-26.95,26.8h-79.95c-18.46,0-26.95-9.38-26.95-26.8h.01Z"/>
  <path class="cls-1" d="M659.35,96.23c0-1.79.89-2.68,2.83-2.68h9.53c1.79,0,2.68.74,2.98,2.68,1.04,7.44,5.21,11.02,14.89,11.02h68.49c10.72,0,16.08-4.17,16.08-14.44s-5.06-15.19-16.38-15.63l-68.19-4.17c-19.95-1.19-30.22-10.57-30.22-29.03,0-19.65,10.27-28.14,30.22-28.14h69.68c19.8,0,28.14,9.23,28.14,25.01,0,1.79-1.04,2.68-2.83,2.68h-9.53c-1.94,0-2.68-.89-2.98-2.68-1.04-7.44-5.21-11.02-15.04-11.02h-66.25c-10.72,0-16.08,4.17-16.08,14.44s5.06,15.19,16.38,15.63l68.19,4.17c19.95,1.19,30.22,10.57,30.22,28.88,0,19.8-10.27,28.29-30.22,28.29h-71.76c-19.95,0-28.14-9.23-28.14-25.01h-.01Z"/>
  <g>
    <path class="cls-2" d="M55.84,101.71h62.26c8.68,0,12.89-3.32,12.89-12.25v-14.23H43.08v14.23c0,8.93,4.21,12.25,12.76,12.25Z"/>
    <path class="cls-2" d="M29.69,61.84v-15.5c0-14.93,7.78-22.97,23.6-22.97h67.49c15.82,0,23.6,8.04,23.6,22.97v15.5h29.69v-26.99C174.07,12.19,162.26,0,138.25,0H35.82C11.81,0,0,12.19,0,34.84v26.99h29.69Z"/>
    <path class="cls-2" d="M144.38,75.23v15.5c0,14.93-7.78,22.97-23.6,22.97H53.29c-15.82,0-23.6-8.04-23.6-22.97v-15.5H0v26.99c0,22.65,11.81,34.85,35.82,34.85h102.43c24.01,0,35.82-12.2,35.82-34.85v-26.99s-29.69,0-29.69,0Z"/>
    <path class="cls-2" d="M118.1,35.36h-62.26c-8.55,0-12.76,3.32-12.76,12.25v14.23h87.9v-14.23c0-8.93-4.21-12.25-12.89-12.25h0Z"/>
  </g>
</svg>